<mxfile host="Electron" modified="2024-01-08T09:05:39.939Z" agent="Mozilla/5.0 (X11; Linux x86_64) AppleWebKit/537.36 (KHTML, like Gecko) draw.io/22.1.2 Chrome/114.0.5735.289 Electron/25.9.4 Safari/537.36" etag="g8UYEuoSTcgnYWbQFOa2" version="22.1.2" type="device">
  <diagram name="Page-1" id="hU8GNJ9TY2ImtlE-TNtU">
    <mxGraphModel dx="470" dy="998" grid="1" gridSize="10" guides="1" tooltips="1" connect="1" arrows="1" fold="0" page="1" pageScale="1" pageWidth="827" pageHeight="1169" math="0" shadow="0">
      <root>
        <mxCell id="0" />
        <mxCell id="1" parent="0" />
        <mxCell id="pvQFE-sMkXaX_mDbPTaX-17" value="&lt;font color=&quot;#82b366&quot;&gt;Base Level&lt;/font&gt;" style="rounded=0;whiteSpace=wrap;html=1;fillColor=none;strokeColor=#82b366;align=left;verticalAlign=top;spacing=0;spacingLeft=6;strokeWidth=2;" vertex="1" parent="1">
          <mxGeometry x="70" y="160" width="310" height="150" as="geometry" />
        </mxCell>
        <mxCell id="pvQFE-sMkXaX_mDbPTaX-1" value="Client" style="rounded=0;whiteSpace=wrap;html=1;fontStyle=1" vertex="1" parent="1">
          <mxGeometry x="80" y="200" width="120" height="40" as="geometry" />
        </mxCell>
        <mxCell id="pvQFE-sMkXaX_mDbPTaX-2" value="Object" style="swimlane;fontStyle=1;align=center;verticalAlign=top;childLayout=stackLayout;horizontal=1;startSize=26;horizontalStack=0;resizeParent=1;resizeParentMax=0;resizeLast=0;collapsible=1;marginBottom=0;whiteSpace=wrap;html=1;" vertex="1" parent="1">
          <mxGeometry x="250" y="200" width="100" height="52" as="geometry" />
        </mxCell>
        <mxCell id="pvQFE-sMkXaX_mDbPTaX-3" value="Do()" style="text;strokeColor=none;fillColor=none;align=left;verticalAlign=top;spacingLeft=4;spacingRight=4;overflow=hidden;rotatable=0;points=[[0,0.5],[1,0.5]];portConstraint=eastwest;whiteSpace=wrap;html=1;" vertex="1" parent="pvQFE-sMkXaX_mDbPTaX-2">
          <mxGeometry y="26" width="100" height="26" as="geometry" />
        </mxCell>
        <mxCell id="pvQFE-sMkXaX_mDbPTaX-4" value="&lt;i&gt;Type&lt;/i&gt;" style="swimlane;fontStyle=1;align=center;verticalAlign=top;childLayout=stackLayout;horizontal=1;startSize=26;horizontalStack=0;resizeParent=1;resizeParentMax=0;resizeLast=0;collapsible=1;marginBottom=0;whiteSpace=wrap;html=1;" vertex="1" parent="1">
          <mxGeometry x="400" y="200" width="100" height="52" as="geometry" />
        </mxCell>
        <mxCell id="pvQFE-sMkXaX_mDbPTaX-5" value="Do()" style="text;strokeColor=none;fillColor=none;align=left;verticalAlign=top;spacingLeft=4;spacingRight=4;overflow=hidden;rotatable=0;points=[[0,0.5],[1,0.5]];portConstraint=eastwest;whiteSpace=wrap;html=1;" vertex="1" parent="pvQFE-sMkXaX_mDbPTaX-4">
          <mxGeometry y="26" width="100" height="26" as="geometry" />
        </mxCell>
        <mxCell id="pvQFE-sMkXaX_mDbPTaX-6" value="ConcreteTypeA" style="swimlane;fontStyle=1;align=center;verticalAlign=top;childLayout=stackLayout;horizontal=1;startSize=26;horizontalStack=0;resizeParent=1;resizeParentMax=0;resizeLast=0;collapsible=1;marginBottom=0;whiteSpace=wrap;html=1;" vertex="1" parent="1">
          <mxGeometry x="540" y="167" width="100" height="52" as="geometry" />
        </mxCell>
        <mxCell id="pvQFE-sMkXaX_mDbPTaX-7" value="Do()" style="text;strokeColor=none;fillColor=none;align=left;verticalAlign=top;spacingLeft=4;spacingRight=4;overflow=hidden;rotatable=0;points=[[0,0.5],[1,0.5]];portConstraint=eastwest;whiteSpace=wrap;html=1;" vertex="1" parent="pvQFE-sMkXaX_mDbPTaX-6">
          <mxGeometry y="26" width="100" height="26" as="geometry" />
        </mxCell>
        <mxCell id="pvQFE-sMkXaX_mDbPTaX-8" value="ConcreteTypeB" style="swimlane;fontStyle=1;align=center;verticalAlign=top;childLayout=stackLayout;horizontal=1;startSize=26;horizontalStack=0;resizeParent=1;resizeParentMax=0;resizeLast=0;collapsible=1;marginBottom=0;whiteSpace=wrap;html=1;" vertex="1" parent="1">
          <mxGeometry x="540" y="247" width="100" height="52" as="geometry" />
        </mxCell>
        <mxCell id="pvQFE-sMkXaX_mDbPTaX-9" value="Do()" style="text;strokeColor=none;fillColor=none;align=left;verticalAlign=top;spacingLeft=4;spacingRight=4;overflow=hidden;rotatable=0;points=[[0,0.5],[1,0.5]];portConstraint=eastwest;whiteSpace=wrap;html=1;" vertex="1" parent="pvQFE-sMkXaX_mDbPTaX-8">
          <mxGeometry y="26" width="100" height="26" as="geometry" />
        </mxCell>
        <mxCell id="pvQFE-sMkXaX_mDbPTaX-10" style="edgeStyle=orthogonalEdgeStyle;rounded=0;orthogonalLoop=1;jettySize=auto;html=1;endArrow=block;endFill=0;endSize=10;exitX=0;exitY=0.25;exitDx=0;exitDy=0;" edge="1" parent="1" source="pvQFE-sMkXaX_mDbPTaX-8">
          <mxGeometry relative="1" as="geometry">
            <mxPoint x="520" y="600" as="sourcePoint" />
            <mxPoint x="500" y="220" as="targetPoint" />
            <Array as="points">
              <mxPoint x="520" y="260" />
              <mxPoint x="520" y="220" />
            </Array>
          </mxGeometry>
        </mxCell>
        <mxCell id="pvQFE-sMkXaX_mDbPTaX-11" style="edgeStyle=orthogonalEdgeStyle;rounded=0;orthogonalLoop=1;jettySize=auto;html=1;endArrow=block;endFill=0;endSize=10;exitX=0;exitY=0.25;exitDx=0;exitDy=0;" edge="1" parent="1" source="pvQFE-sMkXaX_mDbPTaX-6">
          <mxGeometry relative="1" as="geometry">
            <mxPoint x="550" y="288" as="sourcePoint" />
            <mxPoint x="500" y="220" as="targetPoint" />
            <Array as="points">
              <mxPoint x="520" y="180" />
              <mxPoint x="520" y="220" />
            </Array>
          </mxGeometry>
        </mxCell>
        <mxCell id="pvQFE-sMkXaX_mDbPTaX-12" style="rounded=0;orthogonalLoop=1;jettySize=auto;html=1;endArrow=blockThin;endFill=1;" edge="1" parent="1">
          <mxGeometry relative="1" as="geometry">
            <mxPoint x="350" y="219.99999999999994" as="sourcePoint" />
            <mxPoint x="400" y="219.99999999999994" as="targetPoint" />
          </mxGeometry>
        </mxCell>
        <mxCell id="pvQFE-sMkXaX_mDbPTaX-13" value="&lt;span style=&quot;font-size: 10px;&quot;&gt;type&lt;/span&gt;" style="text;html=1;strokeColor=none;fillColor=none;align=center;verticalAlign=middle;whiteSpace=wrap;rounded=0;" vertex="1" parent="1">
          <mxGeometry x="334" y="195" width="60" height="30" as="geometry" />
        </mxCell>
        <mxCell id="pvQFE-sMkXaX_mDbPTaX-14" style="rounded=0;orthogonalLoop=1;jettySize=auto;html=1;endArrow=blockThin;endFill=1;entryX=0;entryY=0.25;entryDx=0;entryDy=0;exitX=1;exitY=0.25;exitDx=0;exitDy=0;" edge="1" parent="1">
          <mxGeometry relative="1" as="geometry">
            <mxPoint x="200" y="220" as="sourcePoint" />
            <mxPoint x="250" y="220" as="targetPoint" />
          </mxGeometry>
        </mxCell>
        <mxCell id="pvQFE-sMkXaX_mDbPTaX-18" value="&lt;font color=&quot;#9673a6&quot;&gt;Meta Level&lt;/font&gt;" style="rounded=0;whiteSpace=wrap;html=1;fillColor=none;strokeColor=#9673A6;align=left;verticalAlign=top;spacing=0;spacingLeft=6;strokeWidth=2;" vertex="1" parent="1">
          <mxGeometry x="383" y="160" width="267" height="150" as="geometry" />
        </mxCell>
      </root>
    </mxGraphModel>
  </diagram>
</mxfile>
